<svg version="1.1" id="Layer_1" xmlns="http://www.w3.org/2000/svg" xmlns:xlink="http://www.w3.org/1999/xlink" x="0px" y="0px"
	 width="100%" viewBox="0 0 1024 1024" enable-background="new 0 0 1024 1024" xml:space="preserve">
<path fill="#5B3E9D" opacity="1.000000" stroke="none" 
	d="
M523.999878,836.361694 
	C468.334503,836.355469 413.169159,836.351562 358.003784,836.339050 
	C348.407776,836.336853 343.187286,831.844116 343.021240,822.266785 
	C342.717926,804.773254 342.674500,787.263367 343.086456,769.773621 
	C343.347198,758.704834 350.026489,752.800476 361.077911,752.701233 
	C369.243744,752.627869 377.413086,752.565002 385.576111,752.731018 
	C389.126923,752.803284 390.795807,751.728394 390.696869,747.920837 
	C390.515076,740.925720 390.526031,733.919678 390.694153,726.923950 
	C390.778259,723.422424 389.355194,722.409058 385.971893,722.265564 
	C344.206177,720.495178 309.581665,691.670593 300.286682,651.105652 
	C297.283356,637.998657 298.925415,625.029968 301.035400,611.989563 
	C305.411865,584.940857 309.476074,557.841797 313.710205,530.769836 
	C316.789612,511.081055 319.980957,491.409729 323.038818,471.717621 
	C325.968140,452.853058 328.743347,433.964569 331.669800,415.099548 
	C335.817749,388.360229 350.004333,369.068176 374.835602,358.073853 
	C378.539124,356.434052 379.750854,354.667847 379.768341,350.755524 
	C379.851013,332.273285 378.843567,313.759277 380.709106,295.316315 
	C383.071625,271.959839 391.162384,250.722687 404.789612,231.601807 
	C426.490326,201.152740 455.850189,182.511322 492.715607,177.024979 
	C569.927429,165.534241 634.500671,217.326080 646.510071,285.889374 
	C648.976746,299.972198 648.084290,314.103210 648.310364,328.228180 
	C648.433044,335.892761 648.408691,343.561768 648.302856,351.226715 
	C648.266846,353.836426 648.886108,355.515411 651.565186,356.608765 
	C679.013672,367.810272 693.166992,388.871613 697.313354,417.713074 
	C701.638123,447.795197 706.573181,477.789093 711.096436,507.843384 
	C715.619446,537.896240 719.928711,567.981262 724.406128,598.041077 
	C725.776062,607.238342 727.634033,616.360962 728.400391,625.648804 
	C730.906738,656.024719 719.414551,680.663452 697.068420,700.488953 
	C681.467957,714.329773 662.946289,721.611633 642.007446,722.257996 
	C638.600220,722.363220 637.222107,723.528931 637.295532,726.982239 
	C637.447815,734.145569 637.460693,741.316772 637.298645,748.479553 
	C637.222412,751.849060 638.679077,752.785034 641.800232,752.733643 
	C649.964478,752.599426 658.132446,752.673828 666.298889,752.684204 
	C678.099487,752.699280 684.659241,758.349731 684.952087,770.031311 
	C685.377991,787.020264 685.348755,804.032532 685.000549,821.024414 
	C684.795593,831.027771 678.616943,836.338257 668.493469,836.341797 
	C620.495605,836.358398 572.497803,836.356445 523.999878,836.361694 
M355.965057,446.146271 
	C352.098267,470.427856 348.155121,494.697601 344.383545,518.993958 
	C339.413971,551.007568 334.613007,583.047302 329.664612,615.064209 
	C328.268829,624.094971 325.916290,633.093140 327.903259,642.273193 
	C334.678314,673.574951 360.324493,694.462463 392.845367,694.533325 
	C473.668701,694.709412 554.493103,694.717957 635.316223,694.497681 
	C656.729614,694.439331 674.487366,685.688110 687.515442,668.546448 
	C698.132629,654.576660 702.911011,639.058350 699.068848,621.220520 
	C696.624939,609.873901 695.446655,598.253906 693.723511,586.753113 
	C689.587219,559.146606 685.486389,531.534790 681.329712,503.931427 
	C677.124268,476.004578 672.612854,448.120972 668.712402,420.151886 
	C665.283203,395.562042 646.819336,381.037109 624.671082,381.196503 
	C550.850281,381.727783 477.023254,381.395905 403.198608,381.388245 
	C382.918518,381.386139 366.887360,393.278259 361.518616,412.856140 
	C358.615234,423.443756 357.636536,434.423187 355.965057,446.146271 
M491.434540,207.069717 
	C444.300232,216.185913 415.322510,259.030792 410.356567,295.739838 
	C407.979492,313.311737 409.845123,331.015442 409.301270,348.649475 
	C409.207062,351.704803 410.491394,352.755585 413.455536,352.719025 
	C422.120148,352.612183 430.789795,352.556030 439.451569,352.747314 
	C443.098419,352.827789 443.844666,351.128448 444.083252,347.937775 
	C444.504028,342.310608 443.730743,336.575012 445.291046,331.055389 
	C449.612610,315.767670 462.631897,307.956970 480.817291,308.292511 
	C503.782715,308.716187 526.770691,308.621185 549.735596,308.128510 
	C565.509094,307.790131 579.058350,317.164703 582.767456,332.334564 
	C584.009949,337.416473 583.343567,342.629822 583.265198,347.769958 
	C583.209412,351.428772 584.380859,352.826416 588.127502,352.741669 
	C596.622375,352.549591 605.129761,352.518402 613.621826,352.769012 
	C617.626465,352.887177 618.786804,351.426849 618.735535,347.555511 
	C618.559021,334.225708 618.696960,320.891937 618.684387,307.559692 
	C618.675171,297.843384 617.258850,288.281647 614.378052,279.046844 
	C599.152405,230.238724 548.732849,196.223770 491.434540,207.069717 
z"/>
<path fill="#F5793B" opacity="1.000000" stroke="none" 
	d="
M570.372192,604.130371 
	C565.230835,616.420471 557.781738,626.343018 547.068848,633.368774 
	C545.260620,632.738770 545.562195,631.573242 545.697632,630.674683 
	C548.638550,611.156982 541.137756,594.802368 530.054382,579.638245 
	C523.649231,570.874695 515.694458,563.433960 508.444672,555.391052 
	C495.004486,540.480408 483.860596,524.204346 479.664520,504.172363 
	C475.232330,483.013245 481.028534,463.978851 492.760956,446.418701 
	C497.245911,439.705994 501.712830,432.921143 508.470062,428.302826 
	C509.644653,429.035339 509.803284,429.894897 509.694397,430.708893 
	C506.916229,451.485199 515.523438,468.863129 526.549988,485.256226 
	C535.099060,497.966003 544.675354,509.979950 553.449768,522.544312 
	C563.337158,536.702515 571.316589,551.820312 574.540955,569.043335 
	C576.785461,581.032288 574.748840,592.526489 570.372192,604.130371 
z"/>
<path fill="#F5793B" opacity="1.000000" stroke="none" 
	d="
M480.704651,573.062378 
	C483.604218,562.721680 488.366364,553.975769 496.337402,546.701965 
	C498.222839,549.212524 497.784729,551.895508 497.981354,554.126282 
	C498.943481,565.042114 503.722504,574.118469 510.441315,582.435852 
	C520.844604,595.314392 530.474304,608.601746 533.723145,625.390442 
	C536.081665,637.578247 535.972351,649.510376 530.742188,661.030273 
	C530.090088,662.466614 529.894287,664.307312 527.458008,664.981995 
	C527.332275,664.750977 526.994019,664.360413 526.896606,663.916931 
	C523.602905,648.927002 514.145691,637.853943 503.803101,627.294250 
	C498.223389,621.597412 492.352478,616.186829 487.532684,609.745605 
	C479.283142,598.720703 477.111084,586.671387 480.704651,573.062378 
z"/>
</svg>